<mxfile host="app.diagrams.net" modified="2023-11-05T17:45:56.236Z" agent="Mozilla/5.0 (Windows NT 10.0; Win64; x64) AppleWebKit/537.36 (KHTML, like Gecko) Chrome/118.0.0.0 Safari/537.36" etag="tzLwwyRpbgtktGsgoBAv" version="22.0.8" type="google">
  <diagram name="Page-1" id="xQvJ50-8-SAP2pnnbhMZ">
    <mxGraphModel grid="1" page="1" gridSize="10" guides="1" tooltips="1" connect="1" arrows="1" fold="1" pageScale="1" pageWidth="827" pageHeight="1169" math="0" shadow="0">
      <root>
        <mxCell id="0" />
        <mxCell id="1" parent="0" />
        <mxCell id="em9KEOfYhMmopgFLkj3s-2" value="&lt;b&gt;&lt;font style=&quot;font-size: 17px;&quot;&gt;IOT Based Automatic Accident Alert System&amp;nbsp;&lt;/font&gt;&lt;/b&gt;&lt;span id=&quot;docs-internal-guid-c0f38b8c-7fff-e6c5-20b9-18882e19b112&quot;&gt;&lt;/span&gt;" style="rounded=1;whiteSpace=wrap;html=1;fillColor=#dae8fc;strokeColor=#6c8ebf;" vertex="1" parent="1">
          <mxGeometry x="400" y="249" width="270" height="70" as="geometry" />
        </mxCell>
        <mxCell id="em9KEOfYhMmopgFLkj3s-3" value="" style="endArrow=none;html=1;rounded=0;entryX=0.5;entryY=1;entryDx=0;entryDy=0;strokeWidth=8;" edge="1" parent="1" target="em9KEOfYhMmopgFLkj3s-2">
          <mxGeometry width="50" height="50" relative="1" as="geometry">
            <mxPoint x="535" y="360" as="sourcePoint" />
            <mxPoint x="530" y="350" as="targetPoint" />
          </mxGeometry>
        </mxCell>
        <mxCell id="em9KEOfYhMmopgFLkj3s-4" value="" style="endArrow=none;html=1;rounded=0;strokeWidth=8;" edge="1" parent="1">
          <mxGeometry width="50" height="50" relative="1" as="geometry">
            <mxPoint x="200" y="360" as="sourcePoint" />
            <mxPoint x="1030" y="360" as="targetPoint" />
          </mxGeometry>
        </mxCell>
        <mxCell id="em9KEOfYhMmopgFLkj3s-5" value="" style="endArrow=none;html=1;rounded=0;strokeWidth=8;" edge="1" parent="1">
          <mxGeometry width="50" height="50" relative="1" as="geometry">
            <mxPoint x="200" y="396" as="sourcePoint" />
            <mxPoint x="200" y="356" as="targetPoint" />
          </mxGeometry>
        </mxCell>
        <mxCell id="em9KEOfYhMmopgFLkj3s-6" value="&lt;b&gt;&lt;font style=&quot;font-size: 14px;&quot;&gt;Introduction&lt;/font&gt;&lt;/b&gt;" style="rounded=1;whiteSpace=wrap;html=1;fillColor=#FFA845;strokeColor=#d79b00;" vertex="1" parent="1">
          <mxGeometry x="140" y="390" width="120" height="50" as="geometry" />
        </mxCell>
        <mxCell id="em9KEOfYhMmopgFLkj3s-7" value="" style="endArrow=none;html=1;rounded=0;strokeWidth=8;" edge="1" parent="1">
          <mxGeometry width="50" height="50" relative="1" as="geometry">
            <mxPoint x="338" y="398" as="sourcePoint" />
            <mxPoint x="338" y="358" as="targetPoint" />
          </mxGeometry>
        </mxCell>
        <mxCell id="em9KEOfYhMmopgFLkj3s-8" value="&lt;b&gt;&lt;font style=&quot;font-size: 14px;&quot;&gt;Review of Literature&lt;/font&gt;&lt;/b&gt;" style="rounded=1;whiteSpace=wrap;html=1;fillColor=#FFCCFF;" vertex="1" parent="1">
          <mxGeometry x="278" y="392" width="120" height="50" as="geometry" />
        </mxCell>
        <mxCell id="em9KEOfYhMmopgFLkj3s-9" value="" style="endArrow=none;html=1;rounded=0;strokeWidth=8;" edge="1" parent="1">
          <mxGeometry width="50" height="50" relative="1" as="geometry">
            <mxPoint x="473" y="396" as="sourcePoint" />
            <mxPoint x="473" y="356" as="targetPoint" />
          </mxGeometry>
        </mxCell>
        <mxCell id="em9KEOfYhMmopgFLkj3s-10" value="&lt;b&gt;&lt;font color=&quot;#000000&quot; style=&quot;font-size: 14px;&quot;&gt;Technical Fesiblilty&lt;/font&gt;&lt;/b&gt;" style="rounded=1;whiteSpace=wrap;html=1;fillColor=#33FF33;fontColor=#ffffff;strokeColor=#2D7600;" vertex="1" parent="1">
          <mxGeometry x="413" y="390" width="120" height="50" as="geometry" />
        </mxCell>
        <mxCell id="em9KEOfYhMmopgFLkj3s-11" value="" style="endArrow=none;html=1;rounded=0;strokeWidth=8;" edge="1" parent="1">
          <mxGeometry width="50" height="50" relative="1" as="geometry">
            <mxPoint x="651" y="397" as="sourcePoint" />
            <mxPoint x="651" y="357" as="targetPoint" />
          </mxGeometry>
        </mxCell>
        <mxCell id="em9KEOfYhMmopgFLkj3s-13" value="" style="endArrow=none;html=1;rounded=0;strokeWidth=8;" edge="1" parent="1">
          <mxGeometry width="50" height="50" relative="1" as="geometry">
            <mxPoint x="852" y="396" as="sourcePoint" />
            <mxPoint x="852" y="356" as="targetPoint" />
          </mxGeometry>
        </mxCell>
        <mxCell id="em9KEOfYhMmopgFLkj3s-14" value="&lt;b&gt;&lt;font color=&quot;#000000&quot; style=&quot;font-size: 14px;&quot;&gt;Implimentation&lt;/font&gt;&lt;/b&gt;" style="rounded=1;whiteSpace=wrap;html=1;fillColor=#a20025;fontColor=#ffffff;strokeColor=#6F0000;" vertex="1" parent="1">
          <mxGeometry x="792" y="390" width="120" height="50" as="geometry" />
        </mxCell>
        <mxCell id="em9KEOfYhMmopgFLkj3s-19" value="" style="endArrow=none;html=1;rounded=0;entryX=0;entryY=0.5;entryDx=0;entryDy=0;strokeWidth=8;" edge="1" parent="1" target="em9KEOfYhMmopgFLkj3s-6">
          <mxGeometry width="50" height="50" relative="1" as="geometry">
            <mxPoint x="100" y="415" as="sourcePoint" />
            <mxPoint x="110" y="440" as="targetPoint" />
          </mxGeometry>
        </mxCell>
        <mxCell id="em9KEOfYhMmopgFLkj3s-20" value="" style="endArrow=none;html=1;rounded=0;strokeWidth=8;" edge="1" parent="1">
          <mxGeometry width="50" height="50" relative="1" as="geometry">
            <mxPoint x="100" y="680" as="sourcePoint" />
            <mxPoint x="100" y="411" as="targetPoint" />
          </mxGeometry>
        </mxCell>
        <mxCell id="em9KEOfYhMmopgFLkj3s-22" value="&lt;b&gt;&lt;font style=&quot;font-size: 14px;&quot;&gt;Motivation&lt;/font&gt;&lt;/b&gt;" style="rounded=1;whiteSpace=wrap;html=1;fillColor=#FFA845;strokeColor=#d79b00;" vertex="1" parent="1">
          <mxGeometry x="140" y="467" width="120" height="50" as="geometry" />
        </mxCell>
        <mxCell id="em9KEOfYhMmopgFLkj3s-23" value="" style="endArrow=none;html=1;rounded=0;entryX=0;entryY=0.5;entryDx=0;entryDy=0;strokeWidth=8;" edge="1" parent="1" target="em9KEOfYhMmopgFLkj3s-22">
          <mxGeometry width="50" height="50" relative="1" as="geometry">
            <mxPoint x="100" y="492" as="sourcePoint" />
            <mxPoint x="110" y="517" as="targetPoint" />
          </mxGeometry>
        </mxCell>
        <mxCell id="em9KEOfYhMmopgFLkj3s-24" value="&lt;b&gt;&lt;font style=&quot;font-size: 14px;&quot;&gt;Problem Statement&lt;/font&gt;&lt;/b&gt;" style="rounded=1;whiteSpace=wrap;html=1;fillColor=#FFA845;strokeColor=#d79b00;" vertex="1" parent="1">
          <mxGeometry x="142" y="528" width="120" height="50" as="geometry" />
        </mxCell>
        <mxCell id="em9KEOfYhMmopgFLkj3s-25" value="" style="endArrow=none;html=1;rounded=0;entryX=0;entryY=0.5;entryDx=0;entryDy=0;strokeWidth=8;" edge="1" parent="1" target="em9KEOfYhMmopgFLkj3s-24">
          <mxGeometry width="50" height="50" relative="1" as="geometry">
            <mxPoint x="102" y="553" as="sourcePoint" />
            <mxPoint x="112" y="578" as="targetPoint" />
          </mxGeometry>
        </mxCell>
        <mxCell id="em9KEOfYhMmopgFLkj3s-26" value="&lt;b&gt;&lt;font style=&quot;font-size: 14px;&quot;&gt;Objective&lt;/font&gt;&lt;/b&gt;" style="rounded=1;whiteSpace=wrap;html=1;fillColor=#FFA845;strokeColor=#d79b00;" vertex="1" parent="1">
          <mxGeometry x="142" y="588" width="120" height="50" as="geometry" />
        </mxCell>
        <mxCell id="em9KEOfYhMmopgFLkj3s-27" value="" style="endArrow=none;html=1;rounded=0;entryX=0;entryY=0.5;entryDx=0;entryDy=0;strokeWidth=8;" edge="1" parent="1" target="em9KEOfYhMmopgFLkj3s-26">
          <mxGeometry width="50" height="50" relative="1" as="geometry">
            <mxPoint x="102" y="613" as="sourcePoint" />
            <mxPoint x="112" y="638" as="targetPoint" />
          </mxGeometry>
        </mxCell>
        <mxCell id="em9KEOfYhMmopgFLkj3s-28" value="&lt;b&gt;&lt;font style=&quot;font-size: 14px;&quot;&gt;Scope&lt;/font&gt;&lt;/b&gt;" style="rounded=1;whiteSpace=wrap;html=1;fillColor=#FFA845;strokeColor=#d79b00;" vertex="1" parent="1">
          <mxGeometry x="142" y="650" width="120" height="50" as="geometry" />
        </mxCell>
        <mxCell id="em9KEOfYhMmopgFLkj3s-29" value="" style="endArrow=none;html=1;rounded=0;entryX=0;entryY=0.5;entryDx=0;entryDy=0;strokeWidth=8;" edge="1" parent="1">
          <mxGeometry width="50" height="50" relative="1" as="geometry">
            <mxPoint x="102" y="676" as="sourcePoint" />
            <mxPoint x="142" y="676" as="targetPoint" />
          </mxGeometry>
        </mxCell>
        <mxCell id="em9KEOfYhMmopgFLkj3s-30" value="" style="endArrow=none;html=1;rounded=0;strokeWidth=8;" edge="1" parent="1">
          <mxGeometry width="50" height="50" relative="1" as="geometry">
            <mxPoint x="555" y="751" as="sourcePoint" />
            <mxPoint x="555" y="564" as="targetPoint" />
          </mxGeometry>
        </mxCell>
        <mxCell id="em9KEOfYhMmopgFLkj3s-31" value="&lt;font size=&quot;1&quot; color=&quot;#000000&quot;&gt;&lt;b style=&quot;font-size: 14px;&quot;&gt;&amp;nbsp;Use case Diagram&lt;/b&gt;&lt;/font&gt;" style="rounded=1;whiteSpace=wrap;html=1;fillColor=#9991FF;fontColor=#ffffff;strokeColor=#006EAF;" vertex="1" parent="1">
          <mxGeometry x="589" y="538" width="120" height="50" as="geometry" />
        </mxCell>
        <mxCell id="em9KEOfYhMmopgFLkj3s-32" value="" style="endArrow=none;html=1;rounded=0;strokeWidth=8;" edge="1" parent="1">
          <mxGeometry width="50" height="50" relative="1" as="geometry">
            <mxPoint x="551" y="564" as="sourcePoint" />
            <mxPoint x="589" y="564" as="targetPoint" />
          </mxGeometry>
        </mxCell>
        <mxCell id="em9KEOfYhMmopgFLkj3s-33" value="&lt;font size=&quot;1&quot; color=&quot;#000000&quot;&gt;&lt;b style=&quot;font-size: 14px;&quot;&gt;Activity Diagram&lt;/b&gt;&lt;/font&gt;" style="rounded=1;whiteSpace=wrap;html=1;fillColor=#9991FF;fontColor=#ffffff;strokeColor=#3700CC;" vertex="1" parent="1">
          <mxGeometry x="587" y="600" width="120" height="50" as="geometry" />
        </mxCell>
        <mxCell id="em9KEOfYhMmopgFLkj3s-34" value="" style="endArrow=none;html=1;rounded=0;entryX=0;entryY=0.5;entryDx=0;entryDy=0;strokeWidth=8;" edge="1" parent="1" target="em9KEOfYhMmopgFLkj3s-33">
          <mxGeometry width="50" height="50" relative="1" as="geometry">
            <mxPoint x="559" y="625" as="sourcePoint" />
            <mxPoint x="557" y="650" as="targetPoint" />
          </mxGeometry>
        </mxCell>
        <mxCell id="em9KEOfYhMmopgFLkj3s-35" value="&lt;b&gt;&lt;font color=&quot;#000000&quot; style=&quot;font-size: 14px;&quot;&gt;Sequence Diagram&lt;/font&gt;&lt;/b&gt;" style="rounded=1;whiteSpace=wrap;html=1;fillColor=#9991FF;fontColor=#ffffff;strokeColor=#006EAF;" vertex="1" parent="1">
          <mxGeometry x="587" y="660" width="120" height="50" as="geometry" />
        </mxCell>
        <mxCell id="em9KEOfYhMmopgFLkj3s-36" value="" style="endArrow=none;html=1;rounded=0;entryX=0;entryY=0.5;entryDx=0;entryDy=0;strokeWidth=8;" edge="1" parent="1">
          <mxGeometry width="50" height="50" relative="1" as="geometry">
            <mxPoint x="559" y="685" as="sourcePoint" />
            <mxPoint x="587" y="684.9999999999998" as="targetPoint" />
          </mxGeometry>
        </mxCell>
        <mxCell id="em9KEOfYhMmopgFLkj3s-37" value="&lt;b&gt;&lt;font color=&quot;#000000&quot; style=&quot;font-size: 14px;&quot;&gt;Flowchart&lt;/font&gt;&lt;/b&gt;" style="rounded=1;whiteSpace=wrap;html=1;fillColor=#9991FF;fontColor=#ffffff;strokeColor=#006EAF;" vertex="1" parent="1">
          <mxGeometry x="587" y="722" width="120" height="50" as="geometry" />
        </mxCell>
        <mxCell id="em9KEOfYhMmopgFLkj3s-38" value="" style="endArrow=none;html=1;rounded=0;strokeWidth=8;" edge="1" parent="1" target="em9KEOfYhMmopgFLkj3s-37">
          <mxGeometry width="50" height="50" relative="1" as="geometry">
            <mxPoint x="559" y="747" as="sourcePoint" />
            <mxPoint x="557" y="772" as="targetPoint" />
          </mxGeometry>
        </mxCell>
        <mxCell id="em9KEOfYhMmopgFLkj3s-39" value="" style="endArrow=none;html=1;rounded=0;strokeWidth=8;exitX=0.5;exitY=0;exitDx=0;exitDy=0;" edge="1" parent="1" source="em9KEOfYhMmopgFLkj3s-12">
          <mxGeometry width="50" height="50" relative="1" as="geometry">
            <mxPoint x="651" y="494" as="sourcePoint" />
            <mxPoint x="650" y="444" as="targetPoint" />
          </mxGeometry>
        </mxCell>
        <mxCell id="em9KEOfYhMmopgFLkj3s-41" value="" style="endArrow=none;html=1;rounded=0;strokeWidth=8;exitX=0.5;exitY=0;exitDx=0;exitDy=0;entryX=0.5;entryY=1;entryDx=0;entryDy=0;" edge="1" parent="1" source="em9KEOfYhMmopgFLkj3s-31" target="em9KEOfYhMmopgFLkj3s-12">
          <mxGeometry width="50" height="50" relative="1" as="geometry">
            <mxPoint x="650" y="534" as="sourcePoint" />
            <mxPoint x="650" y="482" as="targetPoint" />
          </mxGeometry>
        </mxCell>
        <mxCell id="em9KEOfYhMmopgFLkj3s-12" value="&lt;b&gt;&lt;font color=&quot;#000000&quot; style=&quot;font-size: 14px;&quot;&gt;Requirement Elication&lt;/font&gt;&lt;/b&gt;" style="rounded=1;whiteSpace=wrap;html=1;fillColor=#9991FF;fontColor=#ffffff;strokeColor=#006EAF;" vertex="1" parent="1">
          <mxGeometry x="590" y="394" width="120" height="50" as="geometry" />
        </mxCell>
        <mxCell id="em9KEOfYhMmopgFLkj3s-60" value="" style="endArrow=none;html=1;rounded=0;strokeWidth=8;" edge="1" parent="1">
          <mxGeometry width="50" height="50" relative="1" as="geometry">
            <mxPoint x="760" y="600" as="sourcePoint" />
            <mxPoint x="759" y="413" as="targetPoint" />
          </mxGeometry>
        </mxCell>
        <mxCell id="em9KEOfYhMmopgFLkj3s-61" value="" style="endArrow=none;html=1;rounded=0;strokeWidth=8;" edge="1" parent="1">
          <mxGeometry width="50" height="50" relative="1" as="geometry">
            <mxPoint x="755" y="413" as="sourcePoint" />
            <mxPoint x="793" y="413" as="targetPoint" />
          </mxGeometry>
        </mxCell>
        <mxCell id="em9KEOfYhMmopgFLkj3s-62" value="&lt;b&gt;&lt;font color=&quot;#000000&quot; style=&quot;font-size: 14px;&quot;&gt;Hardware Integration&lt;/font&gt;&lt;/b&gt;" style="rounded=1;whiteSpace=wrap;html=1;fillColor=#a20025;fontColor=#ffffff;strokeColor=#6F0000;" vertex="1" parent="1">
          <mxGeometry x="791" y="449" width="120" height="50" as="geometry" />
        </mxCell>
        <mxCell id="em9KEOfYhMmopgFLkj3s-63" value="" style="endArrow=none;html=1;rounded=0;entryX=0;entryY=0.5;entryDx=0;entryDy=0;strokeWidth=8;" edge="1" parent="1" target="em9KEOfYhMmopgFLkj3s-62">
          <mxGeometry width="50" height="50" relative="1" as="geometry">
            <mxPoint x="763" y="474" as="sourcePoint" />
            <mxPoint x="761" y="499" as="targetPoint" />
          </mxGeometry>
        </mxCell>
        <mxCell id="em9KEOfYhMmopgFLkj3s-64" value="&lt;b&gt;&lt;font color=&quot;#000000&quot; style=&quot;font-size: 14px;&quot;&gt;DataBase&lt;/font&gt;&lt;/b&gt;" style="rounded=1;whiteSpace=wrap;html=1;fillColor=#a20025;fontColor=#ffffff;strokeColor=#6F0000;" vertex="1" parent="1">
          <mxGeometry x="791" y="510" width="120" height="50" as="geometry" />
        </mxCell>
        <mxCell id="em9KEOfYhMmopgFLkj3s-65" value="" style="endArrow=none;html=1;rounded=0;entryX=0;entryY=0.5;entryDx=0;entryDy=0;strokeWidth=8;" edge="1" parent="1">
          <mxGeometry width="50" height="50" relative="1" as="geometry">
            <mxPoint x="763" y="536" as="sourcePoint" />
            <mxPoint x="791" y="536" as="targetPoint" />
          </mxGeometry>
        </mxCell>
        <mxCell id="em9KEOfYhMmopgFLkj3s-66" value="&lt;font size=&quot;1&quot; color=&quot;#000000&quot;&gt;&lt;b style=&quot;font-size: 14px;&quot;&gt;Software Application&lt;/b&gt;&lt;/font&gt;" style="rounded=1;whiteSpace=wrap;html=1;fillColor=#a20025;fontColor=#ffffff;strokeColor=#6F0000;" vertex="1" parent="1">
          <mxGeometry x="792" y="572" width="120" height="50" as="geometry" />
        </mxCell>
        <mxCell id="em9KEOfYhMmopgFLkj3s-67" value="" style="endArrow=none;html=1;rounded=0;strokeWidth=8;" edge="1" parent="1">
          <mxGeometry width="50" height="50" relative="1" as="geometry">
            <mxPoint x="763" y="596" as="sourcePoint" />
            <mxPoint x="791" y="596" as="targetPoint" />
          </mxGeometry>
        </mxCell>
        <mxCell id="em9KEOfYhMmopgFLkj3s-72" value="&lt;b&gt;&lt;font style=&quot;font-size: 14px;&quot;&gt;Result&lt;/font&gt;&lt;/b&gt;" style="rounded=1;whiteSpace=wrap;html=1;fillColor=#E3E32D;fontColor=#000000;strokeColor=#BD7000;" vertex="1" parent="1">
          <mxGeometry x="963" y="390" width="120" height="50" as="geometry" />
        </mxCell>
        <mxCell id="em9KEOfYhMmopgFLkj3s-73" value="" style="endArrow=none;html=1;rounded=0;strokeWidth=8;" edge="1" parent="1">
          <mxGeometry width="50" height="50" relative="1" as="geometry">
            <mxPoint x="931" y="600" as="sourcePoint" />
            <mxPoint x="930" y="413" as="targetPoint" />
          </mxGeometry>
        </mxCell>
        <mxCell id="em9KEOfYhMmopgFLkj3s-74" value="" style="endArrow=none;html=1;rounded=0;strokeWidth=8;" edge="1" parent="1">
          <mxGeometry width="50" height="50" relative="1" as="geometry">
            <mxPoint x="926" y="413" as="sourcePoint" />
            <mxPoint x="964" y="413" as="targetPoint" />
          </mxGeometry>
        </mxCell>
        <mxCell id="em9KEOfYhMmopgFLkj3s-75" value="&lt;b&gt;&lt;font style=&quot;font-size: 14px;&quot;&gt;Output&lt;/font&gt;&lt;/b&gt;" style="rounded=1;whiteSpace=wrap;html=1;fillColor=#E3E32D;fontColor=#000000;strokeColor=#BD7000;" vertex="1" parent="1">
          <mxGeometry x="962" y="449" width="120" height="50" as="geometry" />
        </mxCell>
        <mxCell id="em9KEOfYhMmopgFLkj3s-76" value="" style="endArrow=none;html=1;rounded=0;entryX=0;entryY=0.5;entryDx=0;entryDy=0;strokeWidth=8;" edge="1" parent="1" target="em9KEOfYhMmopgFLkj3s-75">
          <mxGeometry width="50" height="50" relative="1" as="geometry">
            <mxPoint x="934" y="474" as="sourcePoint" />
            <mxPoint x="932" y="499" as="targetPoint" />
          </mxGeometry>
        </mxCell>
        <mxCell id="em9KEOfYhMmopgFLkj3s-77" value="&lt;b&gt;&lt;font style=&quot;font-size: 14px;&quot;&gt;Technologies Used&lt;/font&gt;&lt;/b&gt;" style="rounded=1;whiteSpace=wrap;html=1;fillColor=#E3E32D;fontColor=#000000;strokeColor=#BD7000;" vertex="1" parent="1">
          <mxGeometry x="962" y="510" width="120" height="50" as="geometry" />
        </mxCell>
        <mxCell id="em9KEOfYhMmopgFLkj3s-78" value="" style="endArrow=none;html=1;rounded=0;entryX=0;entryY=0.5;entryDx=0;entryDy=0;strokeWidth=8;" edge="1" parent="1">
          <mxGeometry width="50" height="50" relative="1" as="geometry">
            <mxPoint x="934" y="536" as="sourcePoint" />
            <mxPoint x="962" y="536" as="targetPoint" />
          </mxGeometry>
        </mxCell>
        <mxCell id="em9KEOfYhMmopgFLkj3s-79" value="&lt;b&gt;&lt;font style=&quot;font-size: 14px;&quot;&gt;Conclution&lt;/font&gt;&lt;/b&gt;" style="rounded=1;whiteSpace=wrap;html=1;fillColor=#E3E32D;fontColor=#000000;strokeColor=#BD7000;" vertex="1" parent="1">
          <mxGeometry x="963" y="572" width="120" height="50" as="geometry" />
        </mxCell>
        <mxCell id="em9KEOfYhMmopgFLkj3s-80" value="" style="endArrow=none;html=1;rounded=0;strokeWidth=8;" edge="1" parent="1">
          <mxGeometry width="50" height="50" relative="1" as="geometry">
            <mxPoint x="934" y="596" as="sourcePoint" />
            <mxPoint x="962" y="596" as="targetPoint" />
          </mxGeometry>
        </mxCell>
        <mxCell id="em9KEOfYhMmopgFLkj3s-81" value="" style="endArrow=none;html=1;rounded=0;strokeWidth=8;" edge="1" parent="1">
          <mxGeometry width="50" height="50" relative="1" as="geometry">
            <mxPoint x="1026" y="390" as="sourcePoint" />
            <mxPoint x="1026" y="360" as="targetPoint" />
          </mxGeometry>
        </mxCell>
        <mxCell id="em9KEOfYhMmopgFLkj3s-82" value="&lt;b&gt;&lt;font color=&quot;#000000&quot; style=&quot;font-size: 14px;&quot;&gt;Software Requirement&lt;/font&gt;&lt;/b&gt;" style="rounded=1;whiteSpace=wrap;html=1;fillColor=#33FF33;fontColor=#ffffff;strokeColor=#2D7600;" vertex="1" parent="1">
          <mxGeometry x="483" y="479" width="120" height="50" as="geometry" />
        </mxCell>
        <mxCell id="em9KEOfYhMmopgFLkj3s-83" value="" style="endArrow=none;html=1;rounded=0;strokeWidth=8;exitX=0.5;exitY=0;exitDx=0;exitDy=0;" edge="1" parent="1" source="em9KEOfYhMmopgFLkj3s-82">
          <mxGeometry width="50" height="50" relative="1" as="geometry">
            <mxPoint x="543" y="479" as="sourcePoint" />
            <mxPoint x="543" y="466" as="targetPoint" />
          </mxGeometry>
        </mxCell>
        <mxCell id="em9KEOfYhMmopgFLkj3s-85" value="" style="endArrow=none;html=1;rounded=0;entryX=0;entryY=0.5;entryDx=0;entryDy=0;strokeWidth=8;" edge="1" parent="1">
          <mxGeometry width="50" height="50" relative="1" as="geometry">
            <mxPoint x="401" y="462" as="sourcePoint" />
            <mxPoint x="547" y="462.47" as="targetPoint" />
          </mxGeometry>
        </mxCell>
        <mxCell id="em9KEOfYhMmopgFLkj3s-86" value="" style="endArrow=none;html=1;rounded=0;strokeWidth=8;entryX=0.5;entryY=1;entryDx=0;entryDy=0;" edge="1" parent="1">
          <mxGeometry width="50" height="50" relative="1" as="geometry">
            <mxPoint x="474" y="460" as="sourcePoint" />
            <mxPoint x="474" y="441" as="targetPoint" />
          </mxGeometry>
        </mxCell>
        <mxCell id="em9KEOfYhMmopgFLkj3s-87" value="&lt;b&gt;&lt;font color=&quot;#000000&quot; style=&quot;font-size: 14px;&quot;&gt;Hardware Requiement&lt;/font&gt;&lt;/b&gt;" style="rounded=1;whiteSpace=wrap;html=1;fillColor=#33FF33;fontColor=#ffffff;strokeColor=#2D7600;" vertex="1" parent="1">
          <mxGeometry x="344" y="479" width="120" height="50" as="geometry" />
        </mxCell>
        <mxCell id="em9KEOfYhMmopgFLkj3s-88" value="" style="endArrow=none;html=1;rounded=0;strokeWidth=8;exitX=0.5;exitY=0;exitDx=0;exitDy=0;" edge="1" parent="1">
          <mxGeometry width="50" height="50" relative="1" as="geometry">
            <mxPoint x="405" y="479" as="sourcePoint" />
            <mxPoint x="405" y="466" as="targetPoint" />
          </mxGeometry>
        </mxCell>
      </root>
    </mxGraphModel>
  </diagram>
</mxfile>
